<svg width="37" height="36" viewBox="0 0 37 36" fill="none" xmlns="http://www.w3.org/2000/svg">
<path d="M31.6188 3.6H26.2813V0.9C26.2813 0.661305 26.1875 0.432387 26.0207 0.263604C25.8539 0.0948213 25.6276 0 25.3917 0C25.1557 0 24.9295 0.0948213 24.7626 0.263604C24.5958 0.432387 24.5021 0.661305 24.5021 0.9V3.6H12.0479V0.9C12.0479 0.661305 11.9542 0.432387 11.7874 0.263604C11.6205 0.0948213 11.3943 0 11.1583 0C10.9224 0 10.6961 0.0948213 10.5293 0.263604C10.3625 0.432387 10.2688 0.661305 10.2688 0.9V3.6H4.93125C3.75203 3.60143 2.6215 4.07599 1.78766 4.9196C0.953822 5.7632 0.48475 6.90696 0.483337 8.1V31.5C0.48475 32.693 0.953822 33.8368 1.78766 34.6804C2.6215 35.524 3.75203 35.9986 4.93125 36H31.6188C32.7981 35.999 33.9289 35.5246 34.7629 34.6809C35.5968 33.8372 36.0657 32.6932 36.0667 31.5V8.1C36.0657 6.90682 35.5968 5.76278 34.7629 4.91907C33.9289 4.07537 32.7981 3.60095 31.6188 3.6ZM34.2875 31.5C34.2875 32.2161 34.0063 32.9028 33.5058 33.4092C33.0054 33.9155 32.3265 34.2 31.6188 34.2H4.93125C4.22346 34.2 3.54465 33.9155 3.04416 33.4092C2.54368 32.9028 2.2625 32.2161 2.2625 31.5V16.2H34.2875V31.5ZM34.2875 14.4H2.2625V8.1C2.2625 6.6096 3.45455 5.4 4.93125 5.4H10.2688V8.1C10.2688 8.33869 10.3625 8.56761 10.5293 8.7364C10.6961 8.90518 10.9224 9 11.1583 9C11.3943 9 11.6205 8.90518 11.7874 8.7364C11.9542 8.56761 12.0479 8.33869 12.0479 8.1V5.4H24.5021V8.1C24.5021 8.33869 24.5958 8.56761 24.7626 8.7364C24.9295 8.90518 25.1557 9 25.3917 9C25.6276 9 25.8539 8.90518 26.0207 8.7364C26.1875 8.56761 26.2813 8.33869 26.2813 8.1V5.4H31.6188C32.3265 5.4 33.0054 5.68446 33.5058 6.19081C34.0063 6.69716 34.2875 7.38392 34.2875 8.1V14.4Z" fill="black"/>
</svg>
